<svg width="32" height="32" viewBox="0 0 32 32" fill="none" xmlns="http://www.w3.org/2000/svg">
<path fill-rule="evenodd" clip-rule="evenodd" d="M25.7172 5.89024C26.1912 6.18257 26.7329 6.70916 26.7329 7.52847C26.7329 7.71055 26.6899 7.86137 26.668 7.93207C26.6409 8.01983 26.6077 8.10283 26.5769 8.17355C26.5151 8.31569 26.4355 8.4704 26.3524 8.62148C26.1846 8.927 25.9655 9.28493 25.7456 9.62594C25.5246 9.96854 25.2932 10.3088 25.0965 10.581C24.9987 10.7162 24.904 10.8424 24.8199 10.9466L24.8185 10.9483C24.7621 11.0182 24.6334 11.1776 24.4835 11.2915C24.1289 11.5611 23.7479 11.8681 23.3494 12.1894C22.4182 12.9401 21.3909 13.7683 20.3782 14.3759C19.3741 14.9784 18.2869 15.5382 17.1482 15.7449C15.9567 15.9612 14.7424 15.7846 13.5542 14.9925C11.324 13.5057 8.82475 10.7994 7.08488 8.41706C6.95991 8.49317 6.83486 8.57297 6.70946 8.65658C6.22311 8.98081 5.56601 8.84939 5.24178 8.36304C4.91755 7.8767 5.04897 7.21959 5.53532 6.89536C5.68037 6.79866 5.82516 6.70619 5.96987 6.61781C5.90032 6.20978 6.07516 5.78124 6.44658 5.5457C6.88364 5.26854 7.44636 5.35155 7.78687 5.71684C9.25933 5.1504 10.8028 4.93564 12.6068 4.93564C12.7052 4.93564 12.9541 4.92571 13.3159 4.91127C14.5773 4.86095 17.2104 4.7559 19.6156 4.82628C21.1906 4.87237 22.7956 4.99287 24.0304 5.26922C24.6391 5.40546 25.2419 5.5971 25.7172 5.89024ZM9.05179 7.51638C10.6655 9.65969 12.8606 11.9861 14.7283 13.2313C15.4274 13.6973 16.078 13.7879 16.7702 13.6622C17.5153 13.527 18.3306 13.136 19.2891 12.5608C20.1747 12.0295 21.0013 11.362 21.8718 10.6591C22.2832 10.3268 22.7044 9.98671 23.1463 9.64929C23.1533 9.6409 23.1621 9.63028 23.1727 9.61712C23.2243 9.55325 23.2949 9.46012 23.381 9.34099C23.552 9.10436 23.7623 8.79565 23.9667 8.47865C24.1657 8.17019 24.3502 7.86767 24.4843 7.62581C24.2901 7.53175 23.9906 7.4294 23.5681 7.33483C22.5376 7.10421 21.0977 6.98727 19.5537 6.94209C17.2584 6.87492 15.0063 6.96469 13.6694 7.01798C13.1758 7.03766 12.807 7.05236 12.6068 7.05236C11.2397 7.05236 10.1022 7.18678 9.05179 7.51638ZM24.689 7.75126C24.6889 7.75127 24.6876 7.75013 24.6855 7.74782C24.688 7.7501 24.6891 7.75125 24.689 7.75126Z" fill="#DFD4F9"/>
<path fill-rule="evenodd" clip-rule="evenodd" d="M6.23182 6.72328C6.8132 6.78368 7.23554 7.30396 7.17514 7.88534C6.67751 12.675 6.17052 17.1162 5.02235 21.8364C4.98763 21.9791 4.92353 22.195 4.8601 22.4085C4.82162 22.5381 4.7834 22.6668 4.75212 22.7778C4.65296 23.13 4.56973 23.4761 4.53488 23.7777C4.51965 23.9095 4.51572 24.0165 4.51959 24.0997C10.6546 24.417 16.6834 24.3074 22.9157 24.0924C23.5289 24.0713 24.6892 23.9749 25.7934 23.7627C26.3459 23.6566 26.8554 23.5268 27.2642 23.3753C27.6634 23.2272 27.8629 23.0954 27.9382 23.0255C27.9461 23.0077 27.9629 22.9658 27.9819 22.8897C28.0193 22.7399 28.0484 22.526 28.0609 22.2449C28.0858 21.6831 28.04 20.9769 27.9538 20.2313C27.7821 18.7474 27.4685 17.2574 27.362 16.7581C27.2233 16.108 27.1723 15.3311 27.1298 14.5964C27.1247 14.5082 27.1197 14.4201 27.1148 14.3322C27.0765 13.6563 27.0388 12.9908 26.9569 12.3506C26.7606 10.8153 26.364 9.94745 25.6963 9.61358C25.1735 9.35218 24.9616 8.71645 25.223 8.19364C25.4844 7.67084 26.1201 7.45893 26.6429 7.72033C28.3803 8.589 28.8594 10.5407 29.0565 12.0821C29.1486 12.802 29.1906 13.547 29.2282 14.2144C29.2332 14.3025 29.2381 14.3892 29.243 14.4743C29.2871 15.2365 29.3328 15.851 29.4321 16.3165C29.5403 16.8233 29.8724 18.3971 30.0564 19.988C30.1481 20.7797 30.2077 21.6135 30.1755 22.3388C30.1594 22.7012 30.1193 23.0674 30.0356 23.4026C29.9555 23.7233 29.8132 24.1083 29.5302 24.4227C29.1229 24.8753 28.529 25.1638 28.0001 25.3599C27.4415 25.5671 26.8078 25.7233 26.1928 25.8414C24.9622 26.0779 23.6907 26.1837 22.9886 26.2079C16.6974 26.4248 10.5561 26.5371 4.28485 26.2071C3.93588 26.1887 3.5863 26.097 3.27523 25.8942C2.9604 25.689 2.7473 25.4105 2.61341 25.1184C2.36565 24.5778 2.38109 23.9766 2.43216 23.5347C2.48672 23.0625 2.60685 22.5869 2.71464 22.2041C2.77204 22.0003 2.81978 21.8414 2.85926 21.7101C2.90512 21.5575 2.93984 21.442 2.96561 21.3361C4.0766 16.7687 4.57232 12.4544 5.06975 7.6666C5.13016 7.08522 5.65043 6.66288 6.23182 6.72328Z" fill="#DFD4F9"/>
<path fill-rule="evenodd" clip-rule="evenodd" d="M15.3662 14.8952C15.8632 14.5875 16.5155 14.741 16.8231 15.238C17.3876 16.1498 18.1648 16.9351 19.031 17.8104C19.081 17.8609 19.1313 17.9117 19.1819 17.9629C20.0673 18.8587 21.0517 19.874 21.6713 21.1132C21.759 21.2885 21.8665 21.5722 21.9553 21.8063C21.963 21.8265 21.9705 21.8464 21.9779 21.8658C21.9823 21.8776 21.9868 21.8894 21.9913 21.9011C22.4416 22.0227 22.773 22.4342 22.773 22.923C22.773 23.1422 22.7627 23.3824 22.7131 23.5939C22.6908 23.6894 22.6369 23.8885 22.4916 24.0819C22.3115 24.3216 21.9537 24.5809 21.4681 24.5216C21.1007 24.4767 20.8718 24.2656 20.7962 24.1915C20.6971 24.0944 20.6263 23.9937 20.5822 23.9259C20.4916 23.7864 20.4141 23.6284 20.3536 23.4957C20.2291 23.2226 20.101 22.8857 19.9991 22.6174C19.8818 22.3087 19.8121 22.128 19.778 22.0598C19.331 21.1657 18.5882 20.3734 17.6764 19.4509C17.6141 19.3878 17.551 19.3241 17.4872 19.2598C16.6595 18.425 15.7198 17.4772 15.0234 16.3521C14.7157 15.8552 14.8692 15.2029 15.3662 14.8952Z" fill="#DFD4F9"/>
<path fill-rule="evenodd" clip-rule="evenodd" d="M15.4181 15.5851C15.7798 16.0442 15.7008 16.7096 15.2417 17.0714C13.0943 18.7632 11.4012 21.4137 10.1874 23.8412C9.92603 24.364 9.2903 24.5759 8.7675 24.3145C8.24469 24.0531 8.03278 23.4174 8.29419 22.8946C9.55614 20.3707 11.4185 17.3889 13.9317 15.4087C14.3909 15.047 15.0563 15.1259 15.4181 15.5851Z" fill="#DFD4F9"/>
</svg>
