<svg width="32" height="32" viewBox="0 0 32 32" fill="none" xmlns="http://www.w3.org/2000/svg">
<path fill-rule="evenodd" clip-rule="evenodd" d="M28.1145 8.92359C27.9307 9.12652 27.6669 9.25615 27.3716 9.26195C22.7802 9.35212 17.9422 10.492 13.2552 11.5962C12.5599 11.76 11.8678 11.9231 11.1804 12.0818C10.087 12.3343 8.98971 12.5379 7.91835 12.7336C7.9117 12.7348 7.90505 12.736 7.8984 12.7372C10.4311 13.158 12.8716 13.3184 15.4896 13.4254C15.936 13.4436 16.5793 13.597 16.8939 14.2365C17.1512 14.7594 17.0041 15.2908 16.9342 15.5149C16.8641 15.7399 16.7569 15.9825 16.6832 16.1492C16.669 16.1812 16.6561 16.2105 16.6449 16.2363C16.5712 16.4062 16.554 16.4676 16.5518 16.467C16.5516 16.467 16.5515 16.4666 16.5515 16.466C16.5316 16.6904 16.4635 16.9688 16.4 17.2085C16.3265 17.4864 16.2289 17.8195 16.1221 18.1756C16.0603 18.3816 15.9951 18.596 15.9284 18.8155C15.7606 19.3678 15.5831 19.9521 15.4242 20.5153C15.4125 20.5568 15.401 20.5979 15.3896 20.6386C15.4691 20.5552 15.5485 20.47 15.6284 20.3831C15.7358 20.2663 15.8463 20.1438 15.9598 20.0178C16.4278 19.4986 16.9491 18.9203 17.5358 18.4364C17.5451 18.419 17.5661 18.3775 17.599 18.2959C17.6049 18.2812 17.6124 18.2621 17.6212 18.2398C17.6509 18.1646 17.6945 18.0538 17.7366 17.9604C17.7975 17.8252 17.8865 17.6505 18.0215 17.4782C18.306 17.1151 18.7012 16.9709 19.051 16.9518C19.3654 16.9346 19.6517 17.0141 19.8628 17.0927C20.2885 17.2514 20.7257 17.5305 21.0871 17.7868C21.4633 18.0536 21.8295 18.3486 22.1176 18.5841C22.1699 18.6268 22.2186 18.6668 22.2642 18.7042C22.349 18.7738 22.4233 18.8347 22.4908 18.8892C22.5414 18.9299 22.582 18.962 22.6141 18.9866C22.6488 19.0131 22.6616 19.0216 22.6593 19.0201C23.6357 19.6582 24.2862 20.3825 24.8466 21.0854C25.0058 21.2851 25.1529 21.476 25.2956 21.6613C25.5107 21.9404 25.716 22.2068 25.9379 22.4711C26.0214 22.1539 26.094 21.806 26.169 21.4468C26.1876 21.3573 26.2064 21.2672 26.2256 21.1767C26.313 20.7635 26.4298 20.2163 26.6063 19.8559C27.511 18.008 27.7555 16.246 27.7555 14.1081C27.7555 13.3373 27.9458 12.4893 28.1021 11.7925C28.1466 11.5942 28.1883 11.4082 28.2221 11.2396C28.4 10.3534 28.4093 9.80681 28.2187 9.41738C28.1408 9.25831 28.1077 9.08895 28.1145 8.92359ZM28.3798 8.27402C28.3806 8.25375 28.3808 8.23334 28.3804 8.21279C28.3692 7.64453 27.8995 7.1929 27.3312 7.20406C22.5025 7.29889 17.4277 8.49634 12.7626 9.5971C12.0711 9.76026 11.3886 9.9213 10.7173 10.0763C9.67586 10.3168 8.62163 10.5128 7.5485 10.7088C7.46763 10.7236 7.38662 10.7384 7.3055 10.7532C6.31736 10.9334 5.31226 11.1168 4.31908 11.3341C4.22837 11.354 4.10806 11.3787 3.97124 11.4067C3.55344 11.4925 2.98165 11.6099 2.62851 11.7174C2.51599 11.7517 2.33946 11.8093 2.1821 11.8985C2.12456 11.9311 1.92368 12.0453 1.77416 12.2749C1.68676 12.4091 1.5917 12.6224 1.60163 12.8943C1.61183 13.1737 1.72832 13.3925 1.84946 13.5371C2.04915 13.7754 2.2992 13.8615 2.36692 13.8848L2.36728 13.8849C2.475 13.922 2.58086 13.9438 2.66526 13.958C2.83784 13.9871 3.05003 14.0054 3.29224 14.0178C4.05668 14.0568 4.82053 14.2206 5.64953 14.3984C6.04953 14.4841 6.4647 14.5731 6.90243 14.653C9.57868 15.141 12.1164 15.3345 14.741 15.4534C14.6987 15.5519 14.6512 15.667 14.6112 15.784C14.5685 15.9088 14.5154 16.0888 14.5008 16.2901C14.5009 16.2884 14.501 16.2875 14.5009 16.2875C14.5008 16.2875 14.4973 16.3165 14.4823 16.3873C14.4662 16.4625 14.4424 16.5603 14.4103 16.6818C14.3459 16.925 14.2566 17.2308 14.1507 17.5839C14.0929 17.7763 14.0304 17.9823 13.9652 18.1967C13.7954 18.7556 13.6081 19.3721 13.4433 19.9564C13.2197 20.7486 13.0105 21.5725 12.946 22.1727C12.9293 22.3286 12.9191 22.4959 12.9268 22.6597C12.9338 22.8066 12.958 23.0385 13.0682 23.2711C13.1952 23.5392 13.4742 23.8659 13.9504 23.9398C14.3437 24.0008 14.6573 23.8489 14.8118 23.7587C15.7912 23.1871 16.5231 22.4508 17.1432 21.7766C17.2824 21.6253 17.4138 21.4799 17.5402 21.3399C18.004 20.8266 18.4009 20.3873 18.8657 20.0076C19.1923 19.7407 19.3645 19.4035 19.4605 19.1802C19.5863 19.2542 19.7325 19.3495 19.8964 19.4657C20.2112 19.6889 20.5313 19.9458 20.8148 20.1776C20.8539 20.2096 20.8944 20.2429 20.9356 20.2768C21.1509 20.4537 21.385 20.6461 21.5332 20.743C22.2471 21.2096 22.7385 21.743 23.2372 22.3685C23.355 22.5163 23.4774 22.6753 23.6058 22.842C24.0014 23.3557 24.4538 23.9431 25.0037 24.5047C25.2287 24.7345 25.5808 25.0044 26.0583 25.0388C26.5835 25.0766 26.9712 24.8139 27.1999 24.5698C27.4146 24.3406 27.5553 24.0655 27.6508 23.8402C27.7515 23.6024 27.8334 23.3434 27.9018 23.0938C28.013 22.6879 28.1077 22.2333 28.1891 21.8422C28.2064 21.7592 28.2231 21.679 28.2393 21.6028C28.2875 21.3748 28.3307 21.1807 28.3727 21.0217C28.3934 20.9431 28.4119 20.8808 28.428 20.8327C28.4359 20.809 28.4425 20.7911 28.4476 20.7782C28.4524 20.7662 28.455 20.7608 28.455 20.7608L28.4549 20.761C29.547 18.5304 29.8138 16.4236 29.8138 14.1081C29.8138 13.5863 29.931 13.06 30.0737 12.4195C30.1272 12.1792 30.1843 11.9229 30.2402 11.6446C30.4197 10.7502 30.5895 9.57897 30.0673 8.51231C29.8173 8.00183 29.2009 7.79061 28.6904 8.04054C28.5693 8.09984 28.465 8.17977 28.3798 8.27402ZM19.0893 19.0041C19.0892 19.0041 19.0897 19.0042 19.0907 19.0044L19.0893 19.0041ZM26.495 23.0839C26.495 23.084 26.4927 23.0823 26.4882 23.0781C26.4927 23.0816 26.495 23.0837 26.495 23.0839ZM13.7798 21.9779C13.7772 21.9793 13.7755 21.9803 13.7747 21.9808L13.7743 21.981C13.7761 21.98 13.778 21.9789 13.7798 21.9779ZM14.9829 22.5629C14.9836 22.5687 14.9837 22.5718 14.9836 22.5719C14.9835 22.5719 14.9832 22.5691 14.9829 22.5629ZM2.99237 11.9255C2.99239 11.9255 2.99308 11.9257 2.9944 11.926C2.99301 11.9257 2.99235 11.9256 2.99237 11.9255Z" fill="#DFD4F9"/>
<path fill-rule="evenodd" clip-rule="evenodd" d="M25.5169 11.9127C25.7582 12.4273 25.5365 13.0401 25.0219 13.2813C24.579 13.4889 24.134 13.6902 23.6915 13.8904C22.2686 14.5341 20.8719 15.1659 19.6578 15.9563C19.1815 16.2664 18.544 16.1317 18.2339 15.6553C17.9238 15.179 18.0585 14.5415 18.5348 14.2314C19.8943 13.3463 21.4927 12.6241 22.9419 11.9692C23.3595 11.7805 23.7647 11.5974 24.1483 11.4176C24.6629 11.1764 25.2757 11.398 25.5169 11.9127Z" fill="#DFD4F9"/>
</svg>
