<svg width="373" height="413" viewBox="0 0 373 413" fill="none" xmlns="http://www.w3.org/2000/svg">
<path d="M373 121.524V300.911C372.924 300.945 372.853 300.989 372.789 301.043C371.587 302.339 370.403 303.67 369.201 304.94C369.042 305.135 368.828 305.279 368.587 305.352C367.691 305.545 366.782 305.665 365.867 305.711C361.48 305.781 357.093 305.79 352.706 305.843C348.714 305.895 344.713 306.027 340.721 306.316C336.422 306.622 332.096 306.5 327.788 306.946C325.103 307.235 322.383 307.209 319.681 307.235C316.847 307.235 314.013 307.165 311.179 307.139C309.538 307.139 307.898 307.139 306.257 307.139C303.318 307.043 300.387 306.902 297.483 306.754C296.193 306.692 294.904 306.57 293.605 306.465C291.789 306.316 289.973 306.149 288.148 306.018C286.919 305.93 285.682 305.921 284.445 305.843C282.094 305.711 279.734 305.554 277.426 305.413L271.618 305.081C268.863 304.914 266.108 304.651 263.353 304.608C258.466 304.529 253.57 304.608 248.683 304.608C247.384 304.608 246.051 304.608 244.787 304.678C242.243 304.8 239.698 305.081 237.154 305.089C232.811 305.089 228.468 304.949 224.116 304.87L215.868 304.756C213.122 304.756 210.376 304.704 207.621 304.651C203.638 304.564 199.663 304.476 195.68 304.354C192.96 304.275 190.231 304.187 187.52 304.029C185.563 303.924 183.624 303.6 181.668 303.556C178.284 303.493 174.91 303.165 171.578 302.575C170.63 302.4 170.621 302.427 170.621 301.481V166.353C170.621 160.598 170.569 154.843 170.621 149.089C170.674 143.334 170.262 137.562 170.937 131.816C171.025 130.459 171.189 129.108 171.429 127.769C171.903 125.896 172.138 123.972 172.131 122.04C172.081 118.98 172.286 115.922 172.745 112.896C173.092 109.435 173.679 106.002 174.499 102.621C175.57 98.89 176.324 95.0622 177.842 91.4622C178.562 89.7629 179.123 87.9585 179.86 86.303C180.597 84.6476 181.369 83.0709 182.185 81.4855C183.449 79.0505 184.686 76.5979 186.081 74.2417C187.266 72.2271 188.608 70.3001 189.968 68.3993C191.328 66.4986 192.6 64.7292 194.092 62.9862C195.583 61.2431 197.101 59.5876 198.654 57.9234C199.623 56.8201 200.664 55.7814 201.769 54.8139C204.708 52.3701 207.674 49.9701 210.709 47.6576C212.561 46.2474 214.526 44.9598 216.5 43.7335C218.755 42.3321 221.063 41.0182 223.388 39.7394C225.511 38.5831 227.713 37.5758 229.836 36.4196C233.539 34.405 237.522 33.0912 241.444 31.6109C243.787 30.7349 246.252 30.1919 248.665 29.5087C249.937 29.1495 251.201 28.7554 252.482 28.4838C254.351 28.0897 256.255 27.8444 258.123 27.4327C262.073 26.6541 266.077 26.1769 270.1 26.005C270.723 26.005 271.346 25.8386 271.96 25.751H282.339C282.599 25.8183 282.863 25.868 283.129 25.8999C284.208 25.9962 285.296 26.0225 286.367 26.1539C287.779 26.3291 289.174 26.6707 290.596 26.7758C294.912 27.0999 299.027 28.3524 303.195 29.4035C306.436 30.2189 309.596 31.3271 312.636 32.7145C314.39 33.5291 316.294 34.2123 318.093 35.0182C319.576 35.6926 321.032 36.4459 322.48 37.208C324.156 38.0839 325.823 38.9598 327.455 39.9233C328.666 40.6153 329.824 41.4124 330.964 42.1569C331.842 42.7262 332.816 43.208 333.658 43.8474C335.5 45.2372 337.317 46.6708 339.106 48.1481C341.063 49.7598 343.011 51.3978 344.906 53.0796C347.032 55.1038 348.976 57.3109 350.714 59.6752C351.776 61.0329 352.934 62.3029 353.961 63.6957C355.655 66.0654 357.177 68.5535 358.514 71.1409C360.086 73.8579 361.507 76.6593 362.77 79.5322C363.647 81.6519 364.691 83.7016 365.481 85.8476C366.446 88.4753 367.303 91.141 368.052 93.8447C368.771 96.4724 369.359 99.1002 369.912 101.728C370.368 103.926 370.701 106.107 371.061 108.376C371.289 109.795 371.447 111.232 371.658 112.651C371.807 113.597 372.061 114.516 372.175 115.462C372.386 117.319 372.535 119.185 372.728 121.042C372.787 121.218 372.879 121.382 373 121.524Z" fill="#E46534"/>
<mask id="mask0_303_22" style="mask-type:alpha" maskUnits="userSpaceOnUse" x="0" y="0" width="373" height="413">
<path d="M373 140.225V402.874C372.86 402.923 372.729 402.988 372.612 403.066C370.398 404.964 368.216 406.913 366.002 408.773C365.708 409.058 365.314 409.268 364.87 409.376C363.221 409.659 361.545 409.835 359.86 409.902C351.779 410.004 343.698 410.017 335.616 410.094C328.262 410.171 320.892 410.363 313.538 410.786C305.619 411.235 297.651 411.056 289.715 411.71C284.769 412.133 279.759 412.095 274.781 412.133C269.56 412.133 264.34 412.03 259.119 411.992C256.097 411.992 253.075 411.992 250.052 411.992C244.638 411.851 239.24 411.646 233.89 411.428C231.514 411.338 229.138 411.158 226.746 411.005C223.4 410.787 220.055 410.543 216.693 410.35C214.43 410.222 212.151 410.209 209.873 410.094C205.541 409.902 201.193 409.671 196.943 409.466L186.243 408.978C181.168 408.735 176.093 408.35 171.018 408.286C162.016 408.17 152.997 408.286 143.994 408.286C141.602 408.286 139.146 408.286 136.818 408.388C132.131 408.568 127.444 408.978 122.757 408.991C114.757 408.991 106.756 408.786 98.7396 408.67L83.547 408.504C78.4882 408.504 73.4293 408.427 68.3543 408.35C61.0165 408.222 53.695 408.093 46.3572 407.914C41.3469 407.798 36.3204 407.67 31.3262 407.439C27.722 407.285 24.1501 406.811 20.5459 406.747C14.3125 406.654 8.09795 406.173 1.95908 405.31C0.213537 405.054 0.197331 405.092 0.197331 403.707V205.861C0.197331 197.436 0.100357 189.01 0.197331 180.584C0.294306 172.158 -0.465352 163.707 0.779155 155.294C0.941352 153.307 1.24352 151.329 1.68425 149.369C2.55731 146.627 2.99171 143.809 2.97722 140.981C2.88581 136.501 3.26425 132.023 4.10861 127.592C4.74924 122.525 5.8293 117.499 7.3411 112.549C9.31291 107.086 10.7029 101.481 13.499 96.2106C14.8243 93.7226 15.8588 91.0807 17.2164 88.6568C18.5741 86.233 19.9963 83.9245 21.4994 81.6033C23.8268 78.038 26.1057 74.4471 28.6755 70.9973C30.8575 68.0476 33.3303 65.2262 35.8355 62.4432C38.3406 59.6603 40.6842 57.0697 43.4318 54.5176C46.1794 51.9655 48.9756 49.5416 51.8363 47.105C53.6216 45.4896 55.5382 43.9688 57.574 42.5522C62.9884 38.9741 68.4513 35.4602 74.0435 32.0745C77.4538 30.0097 81.0741 28.1245 84.7106 26.329C88.8644 24.2771 93.1152 22.3534 97.3982 20.481C101.31 18.7881 105.366 17.3133 109.278 15.6204C116.098 12.6708 123.436 10.7471 130.66 8.57969C134.976 7.29723 139.518 6.5021 143.962 5.50178C146.306 4.97597 148.633 4.39886 150.993 4.00129C154.435 3.42418 157.943 3.06509 161.385 2.46233C168.662 1.32237 176.037 0.623541 183.447 0.371915C184.595 0.371915 185.742 0.128247 186.873 0H205.994C206.472 0.0985308 206.958 0.171369 207.448 0.218019C209.436 0.35909 211.44 0.397564 213.412 0.589934C216.014 0.846427 218.584 1.34659 221.202 1.50048C229.154 1.975 236.734 3.80892 244.412 5.34788C250.382 6.54164 256.203 8.16424 261.802 10.1956C265.035 11.3883 268.542 12.3886 271.855 13.5685C274.587 14.556 277.27 15.6589 279.937 16.7746C283.024 18.0571 286.095 19.3396 289.101 20.7503C291.331 21.7634 293.465 22.9305 295.566 24.0206C297.182 24.8542 298.976 25.5595 300.528 26.4957C303.922 28.5306 307.267 30.6295 310.565 32.7926C314.169 35.1524 317.757 37.5506 321.248 40.0129C325.164 42.9767 328.745 46.2082 331.947 49.6699C333.903 51.6577 336.036 53.5173 337.927 55.5564C341.049 59.026 343.852 62.669 346.316 66.4574C349.211 70.4354 351.828 74.537 354.155 78.7434C355.771 81.8469 357.694 84.8479 359.149 87.99C360.927 91.8373 362.505 95.7403 363.884 99.6989C365.21 103.546 366.293 107.394 367.311 111.241C368.151 114.46 368.765 117.653 369.428 120.975C369.848 123.053 370.139 125.156 370.527 127.233C370.802 128.618 371.271 129.965 371.481 131.35C371.869 134.069 372.143 136.801 372.499 139.519C372.607 139.778 372.777 140.017 373 140.225Z" fill="#E46534"/>
</mask>
<g mask="url(#mask0_303_22)">
<path d="M209.328 11.1034C338.165 163.276 350.536 203.244 257.428 189.84C314.766 226.452 299.679 230.103 131.816 265.331C279.749 247.026 287.552 261.447 168.298 330.683C328.612 249.751 350.119 195.179 460.613 202.237C396.876 228.679 394.485 244.514 515.549 317.056C419.308 274.24 423.652 249.395 570.089 253.036C417.843 227.611 413.876 222.15 588.259 208.288C433.999 221.123 454.753 206.712 688.468 210.516C461.376 248.439 463.909 285.254 606.093 438.912C410.61 296.085 386.204 289.2 424.293 373.824C370.954 265.23 371.89 254.165 384.831 306.438C345.968 251.734 335.998 274.769 233.815 403.307C291.947 294.041 248.252 278.308 7.89319 282.386C246.502 208.492 316.546 209.946 188.33 102.501C289.902 187.928 275.038 196.796 42.1574 136.346C260.887 191.04 258.425 180.779 31.1803 40.8911C275.7 168.32 293.412 161.913 209.328 11.1034Z" fill="#D6C8F7"/>
</g>
</svg>
