<svg width="266" height="82" viewBox="0 0 266 82" fill="none" xmlns="http://www.w3.org/2000/svg">
<path d="M140.315 82H131.718C131.543 81.945 131.368 81.8418 131.193 81.8418L122.792 81.7592L115.73 81.6835C114.7 81.6835 113.671 81.6353 112.641 81.6009L104.405 81.3119L100.194 81.1537C98.2688 81.0917 96.3333 81.0436 94.3977 80.9885C93.5432 80.9885 92.6887 80.9404 91.8342 80.906C89.353 80.8027 86.8821 80.617 84.401 80.6101C82.2287 80.6101 80.0666 80.8165 77.8943 80.8991C75.722 80.9816 73.5291 81.0229 71.3465 81.0711C69.5963 81.1055 67.8358 81.1399 66.0856 81.1468C58.5083 81.1468 50.9412 81.1949 43.3639 81.2431C41.1607 81.2431 38.9678 81.3395 36.7646 81.3946C34.5614 81.4496 32.317 81.5253 30.0932 81.5459C28.6724 81.5459 27.2414 81.5459 25.8103 81.4702C23.5145 81.4014 21.2186 81.3257 18.9228 81.2293C17.4611 81.1913 16.0228 80.9721 14.6811 80.5826C13.9016 80.3532 13.1739 80.052 12.5191 79.688C10.9808 78.7166 9.70288 77.5763 8.74072 76.3164C7.67358 74.8809 6.94101 73.3448 6.56841 71.7613C6.17719 70.4539 5.89921 69.1327 5.53888 67.8253C5.16825 66.3665 4.74614 64.9147 4.44758 63.4559C4.1799 62.1417 4.08724 60.8068 3.85045 59.4856C3.45923 57.3021 3.03369 55.1208 2.57383 52.9418C2.14143 50.8776 1.61636 48.8133 1.18396 46.7078C0.792739 44.7605 0.473584 42.7994 0.15443 40.8521C0.122445 40.769 0.0702758 40.6899 0 40.6181V37.3359C0.0676413 37.2486 0.119483 37.1562 0.15443 37.0607C0.216202 36.6134 0.226497 36.1662 0.288269 35.6845C0.442698 34.6042 0.525061 33.517 0.792739 32.4436C1.28691 30.4756 1.88404 28.5214 2.43999 26.5604C2.8518 25.0672 3.2945 23.574 3.69602 22.0809C4.00488 20.918 4.28285 19.7551 4.57112 18.5922C4.8285 17.6083 5.06529 16.6174 5.32268 15.6335C5.62981 14.0573 6.24237 12.5145 7.14495 11.0439C7.79181 10.0323 8.77827 9.1338 10.028 8.41789C11.2776 7.70197 12.757 7.18787 14.3517 6.91533C16.5805 6.6006 18.8485 6.42552 21.126 6.39237C21.8981 6.3442 22.6806 6.34419 23.4527 6.28914C25.0588 6.17216 26.6649 6.02767 28.2709 5.90381L31.9669 5.60793C34.1084 5.43591 36.2498 5.25014 38.3912 5.06436C40.0488 4.92674 41.696 4.77537 43.3433 4.64463C44.9905 4.51389 46.854 4.37627 48.6042 4.2593C49.7367 4.18361 50.8794 4.1492 52.0119 4.08039C54.1842 3.94965 56.3565 3.79824 58.5289 3.66751L62.9764 3.4198L68.1962 3.10331C69.4831 3.02074 70.7803 2.93816 72.0672 2.84183C73.7453 2.72485 75.4132 2.58032 77.0913 2.46334C78.9754 2.33261 80.8697 2.23628 82.7537 2.0849C85.3584 1.87159 87.9014 1.60324 90.5473 1.39681C93.1932 1.19038 95.6229 0.997728 98.1761 0.853229C101.707 0.646801 105.249 0.467883 108.78 0.323384C110.963 0.227051 113.145 0.206408 115.328 0.15136C116.821 0.15136 118.314 0.089442 119.796 0.0756802C122.514 0.0756802 125.232 0.00688093 127.96 0C129.443 0 130.936 0.0550307 132.429 0.0687925C134.961 0.0687925 137.494 0.116962 140.027 0.158248C142.292 0.158248 144.556 0.261442 146.821 0.309608C149.086 0.357775 151.557 0.433494 153.925 0.467898C156.931 0.509184 159.938 0.516061 162.944 0.550466C165.95 0.584871 169.07 0.646779 172.138 0.701826C173.98 0.736231 175.813 0.7913 177.656 0.853229C179.715 0.912863 181.75 0.983965 183.761 1.06654L189.794 1.30735C191.421 1.36928 193.047 1.41748 194.674 1.46564L202.128 1.71335C203.899 1.76839 205.669 1.83031 207.44 1.87159C210.21 1.93352 212.989 2.00923 215.769 2.023C223.367 2.07116 230.955 2.07113 238.553 2.1193C241.044 2.1193 243.536 2.20189 246.027 2.2707C247.057 2.2707 248.148 2.38768 249.198 2.49089C250.928 2.64134 252.613 2.97097 254.191 3.46797C255.571 3.9304 256.908 4.44739 258.196 5.01618C259.263 5.45472 260.148 6.06512 260.77 6.79148C261.369 7.41506 261.895 8.06834 262.345 8.74564C262.811 9.64064 263.156 10.5618 263.375 11.498C263.678 12.6748 263.874 13.8628 263.962 15.0555C264.085 17.0578 264.054 19.0739 264.095 21.0831C264.095 22.4593 264.157 23.8699 264.219 25.2599C264.281 26.6498 264.353 28.0122 264.445 29.4297C264.548 31.1637 264.672 32.8702 264.795 34.618C264.868 35.5675 264.95 36.5171 265.032 37.4666L265.403 41.5952C265.526 43.0195 265.671 44.4439 265.763 45.8683C265.866 47.4922 265.99 49.1092 266 50.7331C266 52.9694 265.938 55.2126 265.887 57.4558C265.887 58.1989 265.804 58.9489 265.773 59.699C265.681 61.3297 265.598 62.9674 265.526 64.5982C265.526 65.2037 265.526 65.8161 265.526 66.4216C265.526 67.5845 265.526 68.7405 265.393 69.8621C265.306 70.5782 265.159 71.2904 264.95 71.9952C264.614 73.3085 263.863 74.5588 262.747 75.6627C262.101 76.3555 261.349 77.0013 260.502 77.5894C258.577 78.8624 256.024 79.1238 253.481 79.3165C252.328 79.406 251.164 79.4266 250.011 79.4885C247.952 79.5917 245.965 79.7156 243.937 79.805C242.228 79.8807 240.509 79.8876 238.789 79.9702C235.392 80.1491 232.005 80.383 228.607 80.5481C226.229 80.6651 223.841 80.7339 221.462 80.7958C218.889 80.8647 216.315 80.906 213.751 80.9611L206.658 81.1262L201.418 81.2844C199.358 81.3464 197.299 81.422 195.24 81.4427C190.906 81.484 186.561 81.5046 182.227 81.5253C177.471 81.5253 172.724 81.5252 167.978 81.5872C164.499 81.5872 161.019 81.6284 157.539 81.656L151.279 81.7317L141.447 81.8074C141.204 81.7936 140.96 81.7936 140.716 81.8074C140.569 81.8585 140.434 81.9233 140.315 82Z" fill="#E1D7F8"/>
</svg>
