<svg width="141" height="40" viewBox="0 0 141 40" fill="none" xmlns="http://www.w3.org/2000/svg">
<path d="M65.0625 14.6168C67.1883 14.6168 68.2512 15.3475 68.2512 16.809C68.2512 18.2705 67.1883 19.0012 65.0625 19.0012C62.9367 19.0012 61.8738 18.2705 61.8738 16.809C61.8738 15.3475 62.9367 14.6168 65.0625 14.6168ZM62.7707 22.987C65.8398 22.987 67.6666 21.5521 68.2512 18.6823V22.7878H73.0342V6.84436H68.2512V14.9356C67.6666 12.0658 65.8398 10.6309 62.7707 10.6309C60.9106 10.6309 59.4956 11.1756 58.5257 12.2651C57.5691 13.328 57.0908 14.8426 57.0908 16.809C57.0908 18.7753 57.5691 20.29 58.5257 21.3528C59.4956 22.4423 60.9106 22.987 62.7707 22.987Z" fill="white"/>
<path d="M82.408 14.2182C83.9492 14.2182 84.9323 14.6832 85.3575 15.6132H79.4584C79.8836 14.6832 80.8668 14.2182 82.408 14.2182ZM90.2999 17.6062L90.3597 17.2076C90.373 17.0614 90.3797 16.9286 90.3797 16.809C90.3797 14.8426 89.7153 13.328 88.3867 12.2651C87.0183 11.1756 85.0253 10.6309 82.408 10.6309C79.8039 10.6309 77.8109 11.1756 76.4292 12.2651C75.1006 13.328 74.4363 14.8426 74.4363 16.809C74.4363 18.7753 75.1006 20.29 76.4292 21.3528C77.8109 22.4423 79.8039 22.987 82.408 22.987C86.8854 22.987 89.4762 21.4591 90.1804 18.4033H85.0585C84.5271 19.0676 83.6436 19.3998 82.408 19.3998C80.694 19.3998 79.6777 18.8019 79.3588 17.6062H90.2999Z" fill="white"/>
<path d="M98.9461 19.5991C97.7238 19.5991 96.9399 19.5326 96.5945 19.3998C96.3022 19.2802 96.156 19.0145 96.156 18.6026H91.373C91.373 20.0907 91.9044 21.1735 92.9673 21.8511C94.1498 22.6084 96.1427 22.987 98.9461 22.987C101.723 22.987 103.716 22.6416 104.925 21.9507C105.988 21.3396 106.519 20.3896 106.519 19.1008C106.519 17.7589 106.061 16.8289 105.144 16.3108C104.081 15.6996 102.015 15.3342 98.9461 15.2146C97.7105 15.1748 96.92 15.1084 96.5745 15.0154C96.2955 14.9489 96.156 14.8161 96.156 14.6168C96.156 14.4042 96.2955 14.258 96.5745 14.1783C96.9598 14.072 97.7504 14.0189 98.9461 14.0189C100.036 14.0189 100.746 14.0853 101.079 14.2182C101.384 14.351 101.537 14.6168 101.537 15.0154H106.32C106.32 13.514 105.822 12.4312 104.825 11.7669C103.683 11.0096 101.723 10.6309 98.9461 10.6309C96.156 10.6309 94.1631 10.9564 92.9673 11.6074C91.9044 12.192 91.373 13.1287 91.373 14.4175C91.373 15.7594 91.8247 16.696 92.7282 17.2275C93.8044 17.8519 95.877 18.2107 98.9461 18.3037C100.155 18.3435 100.952 18.4233 101.338 18.5428C101.603 18.6358 101.736 18.7886 101.736 19.0012C101.736 19.2138 101.597 19.3599 101.318 19.4396C100.932 19.5459 100.142 19.5991 98.9461 19.5991Z" fill="white"/>
<path d="M107.91 22.7878H112.693V10.8302H107.91V22.7878ZM107.91 10.033H112.693V6.84436H107.91V10.033Z" fill="white"/>
<path d="M119.276 10.8302H114.493V22.7878H119.276V18.4033C119.276 17.3139 119.662 16.5433 120.432 16.0915C121.203 15.6398 122.545 15.4139 124.458 15.4139V10.6309C123.063 10.6309 121.907 11.0627 120.99 11.9263C120.127 12.7235 119.555 13.8063 119.276 15.1748V10.8302Z" fill="white"/>
<path d="M133.028 14.2182C134.569 14.2182 135.553 14.6832 135.978 15.6132H130.079C130.504 14.6832 131.487 14.2182 133.028 14.2182ZM140.92 17.6062L140.98 17.2076C140.993 17.0614 141 16.9286 141 16.809C141 14.8426 140.336 13.328 139.007 12.2651C137.639 11.1756 135.646 10.6309 133.028 10.6309C130.424 10.6309 128.431 11.1756 127.049 12.2651C125.721 13.328 125.057 14.8426 125.057 16.809C125.057 18.7753 125.721 20.29 127.049 21.3528C128.431 22.4423 130.424 22.987 133.028 22.987C137.506 22.987 140.096 21.4591 140.801 18.4033H135.679C135.147 19.0676 134.264 19.3998 133.028 19.3998C131.314 19.3998 130.298 18.8019 129.979 17.6062H140.92Z" fill="white"/>
<path d="M61.6303 30.6232V29.9596H63.0813V35.5837H61.6303V34.92C61.1954 35.4674 60.5842 35.7411 59.7968 35.7411C59.047 35.7411 58.4021 35.4562 57.8622 34.8863C57.3297 34.3089 57.0635 33.604 57.0635 32.7716C57.0635 31.9468 57.3297 31.2456 57.8622 30.6682C58.4021 30.0908 59.047 29.8021 59.7968 29.8021C60.5842 29.8021 61.1954 30.0758 61.6303 30.6232ZM58.9532 33.9189C59.2457 34.2114 59.6169 34.3576 60.0668 34.3576C60.5167 34.3576 60.8879 34.2114 61.1804 33.9189C61.4803 33.619 61.6303 33.2366 61.6303 32.7716C61.6303 32.3067 61.4803 31.928 61.1804 31.6356C60.8879 31.3356 60.5167 31.1856 60.0668 31.1856C59.6169 31.1856 59.2457 31.3356 58.9532 31.6356C58.6608 31.928 58.5145 32.3067 58.5145 32.7716C58.5145 33.2366 58.6608 33.619 58.9532 33.9189Z" fill="white"/>
<path d="M68.3677 30.657V29.9596H69.7849V35.3137C69.7849 36.1761 69.4962 36.8397 68.9188 37.3046C68.3489 37.7621 67.659 37.9908 66.8492 37.9908C65.5744 37.9908 64.6858 37.5333 64.1833 36.6185L65.4206 35.9099C65.6981 36.4348 66.1893 36.6972 66.8941 36.6972C67.3516 36.6972 67.7115 36.5773 67.974 36.3373C68.2364 36.0973 68.3677 35.7561 68.3677 35.3137V34.7063C67.9402 35.2762 67.3403 35.5612 66.568 35.5612C65.7731 35.5612 65.1057 35.2837 64.5658 34.7288C64.0334 34.1589 63.7672 33.4765 63.7672 32.6816C63.7672 31.8868 64.0371 31.2081 64.577 30.6457C65.1169 30.0833 65.7806 29.8021 66.568 29.8021C67.3403 29.8021 67.9402 30.0871 68.3677 30.657ZM67.9177 33.7952C68.2177 33.5028 68.3677 33.1316 68.3677 32.6816C68.3677 32.2317 68.2177 31.868 67.9177 31.5906C67.6253 31.2981 67.2503 31.1519 66.7929 31.1519C66.343 31.1519 65.9643 31.2981 65.6569 31.5906C65.3644 31.868 65.2182 32.2317 65.2182 32.6816C65.2182 33.1316 65.3644 33.5028 65.6569 33.7952C65.9568 34.0802 66.3355 34.2226 66.7929 34.2226C67.2503 34.2226 67.6253 34.0802 67.9177 33.7952Z" fill="white"/>
<path d="M76.2298 33.3678H71.9893C72.1768 34.0727 72.7054 34.4251 73.5753 34.4251C74.1302 34.4251 74.5501 34.2376 74.8351 33.8627L76.0049 34.5376C75.45 35.34 74.6326 35.7411 73.5528 35.7411C72.6229 35.7411 71.8768 35.4599 71.3144 34.8975C70.752 34.3351 70.4708 33.6265 70.4708 32.7716C70.4708 31.9318 70.7482 31.2269 71.3032 30.657C71.8506 30.0871 72.5629 29.8021 73.4403 29.8021C74.2727 29.8021 74.9513 30.0871 75.4762 30.657C76.0161 31.2269 76.2861 31.9318 76.2861 32.7716C76.2861 32.9291 76.2673 33.1278 76.2298 33.3678ZM71.9668 32.243H74.8351C74.7526 31.8755 74.5839 31.5943 74.3289 31.3994C74.0814 31.2044 73.7852 31.1069 73.4403 31.1069C73.0504 31.1069 72.7279 31.2081 72.473 31.4106C72.218 31.6056 72.0493 31.883 71.9668 32.243Z" fill="white"/>
<path d="M80.0886 29.8021C80.711 29.8021 81.2171 30.0083 81.6071 30.4208C82.012 30.8407 82.2145 31.4106 82.2145 32.1305V35.5837H80.7635V32.3105C80.7635 31.943 80.6622 31.6581 80.4598 31.4556C80.2648 31.2531 79.9948 31.1519 79.6499 31.1519C79.2675 31.1519 78.9638 31.2719 78.7388 31.5118C78.5213 31.7443 78.4126 32.0892 78.4126 32.5467V35.5837H76.9616V29.9596H78.4126V30.5895C78.7575 30.0646 79.3162 29.8021 80.0886 29.8021Z" fill="white"/>
<path d="M85.793 35.7411C84.9457 35.7411 84.237 35.4562 83.6671 34.8863C83.1047 34.3164 82.8235 33.6115 82.8235 32.7716C82.8235 31.9318 83.1047 31.2269 83.6671 30.657C84.237 30.0871 84.9457 29.8021 85.793 29.8021C86.3405 29.8021 86.8391 29.9334 87.289 30.1958C87.739 30.4583 88.0802 30.8107 88.3126 31.2531L87.0641 31.9843C86.9516 31.7518 86.7791 31.5681 86.5467 31.4331C86.3217 31.2981 86.0667 31.2306 85.7818 31.2306C85.3469 31.2306 84.9869 31.3769 84.702 31.6693C84.417 31.9543 84.2745 32.3217 84.2745 32.7716C84.2745 33.2066 84.417 33.574 84.702 33.874C84.9869 34.1589 85.3469 34.3014 85.7818 34.3014C86.0742 34.3014 86.333 34.2376 86.5579 34.1102C86.7904 33.9752 86.9628 33.7915 87.0753 33.559L88.3351 34.2789C88.0877 34.7288 87.7352 35.085 87.2778 35.3475C86.8279 35.6099 86.333 35.7411 85.793 35.7411Z" fill="white"/>
<path d="M91.2274 33.739L92.4759 29.9596H94.0282L91.981 35.5837C91.6886 36.3935 91.2986 36.9784 90.8112 37.3384C90.3313 37.7058 89.7314 37.8708 89.0115 37.8333V36.4835C89.3939 36.491 89.7014 36.4085 89.9339 36.2361C90.1663 36.0636 90.35 35.7861 90.485 35.4037L88.1791 29.9596H89.7651L91.2274 33.739Z" fill="white"/>
<path d="M11.1028 0L24.4262 11.1028L37.7496 0.370094L38.1197 12.9533L49.5926 13.6935L40.9214 23.501L48.8525 33.3085L38.1197 32.5683V39.9702H11.4729L10.7327 32.9384L0.74019 33.3085L8.30118 23.1309L0 13.6935L10.7327 12.9533L11.1028 0Z" fill="#F56B35"/>
<g filter="url(#filter0_d_230_23)">
<mask id="mask0_230_23" style="mask-type:alpha" maskUnits="userSpaceOnUse" x="13" y="5" width="12" height="14">
<rect x="13.7285" y="5.18103" width="11.0327" height="13.607" rx="5.51636" fill="#C4C4C4"/>
</mask>
<g mask="url(#mask0_230_23)">
<rect x="13.7285" y="5.18103" width="11.0327" height="12.5038" rx="5.51636" fill="white"/>
<path d="M16.3639 9.45372C16.4852 7.28286 18.0731 5.75049 19.8823 5.75049H20.3676C22.1767 5.75049 23.7646 7.54953 23.7646 9.45372C23.7646 11.3579 22.28 12.6462 19.8823 12.6462C18.104 12.6462 16.2496 11.4969 16.3639 9.45372Z" fill="black"/>
</g>
</g>
<g filter="url(#filter1_d_230_23)">
<mask id="mask1_230_23" style="mask-type:alpha" maskUnits="userSpaceOnUse" x="24" y="5" width="12" height="14">
<rect width="11.0327" height="13.607" rx="5.51636" transform="matrix(-1 0 0 1 35.7942 5.18103)" fill="#C4C4C4"/>
</mask>
<g mask="url(#mask1_230_23)">
<rect width="11.0327" height="12.5038" rx="5.51636" transform="matrix(-1 0 0 1 35.7942 5.18103)" fill="white"/>
<path d="M33.1589 9.45372C33.0376 7.28286 31.4496 5.75049 29.6405 5.75049H29.1552C27.346 5.75049 25.7581 7.54953 25.7581 9.45372C25.7581 11.3579 27.2428 12.6462 29.6405 12.6462C31.4188 12.6462 33.2732 11.4969 33.1589 9.45372Z" fill="black"/>
</g>
</g>
<defs>
<filter id="filter0_d_230_23" x="12.644" y="5.18103" width="13.2018" height="14.6729" filterUnits="userSpaceOnUse" color-interpolation-filters="sRGB">
<feFlood flood-opacity="0" result="BackgroundImageFix"/>
<feColorMatrix in="SourceAlpha" type="matrix" values="0 0 0 0 0 0 0 0 0 0 0 0 0 0 0 0 0 0 127 0" result="hardAlpha"/>
<feOffset dy="1.08456"/>
<feGaussianBlur stdDeviation="0.542278"/>
<feComposite in2="hardAlpha" operator="out"/>
<feColorMatrix type="matrix" values="0 0 0 0 0.862745 0 0 0 0 0.356863 0 0 0 0 0.152941 0 0 0 1 0"/>
<feBlend mode="normal" in2="BackgroundImageFix" result="effect1_dropShadow_230_23"/>
<feBlend mode="normal" in="SourceGraphic" in2="effect1_dropShadow_230_23" result="shape"/>
</filter>
<filter id="filter1_d_230_23" x="23.6769" y="5.18103" width="13.2018" height="14.6729" filterUnits="userSpaceOnUse" color-interpolation-filters="sRGB">
<feFlood flood-opacity="0" result="BackgroundImageFix"/>
<feColorMatrix in="SourceAlpha" type="matrix" values="0 0 0 0 0 0 0 0 0 0 0 0 0 0 0 0 0 0 127 0" result="hardAlpha"/>
<feOffset dy="1.08456"/>
<feGaussianBlur stdDeviation="0.542278"/>
<feComposite in2="hardAlpha" operator="out"/>
<feColorMatrix type="matrix" values="0 0 0 0 0.862745 0 0 0 0 0.356863 0 0 0 0 0.152941 0 0 0 1 0"/>
<feBlend mode="normal" in2="BackgroundImageFix" result="effect1_dropShadow_230_23"/>
<feBlend mode="normal" in="SourceGraphic" in2="effect1_dropShadow_230_23" result="shape"/>
</filter>
</defs>
</svg>
